<mxfile host="app.diagrams.net" agent="Mozilla/5.0 (X11; Linux x86_64) AppleWebKit/537.36 (KHTML, like Gecko) Chrome/127.0.0.0 Safari/537.36" version="24.7.7">
  <diagram id="prtHgNgQTEPvFCAcTncT" name="Page-1">
    <mxGraphModel dx="2122" dy="588" grid="1" gridSize="10" guides="1" tooltips="1" connect="1" arrows="1" fold="1" page="1" pageScale="1" pageWidth="827" pageHeight="1169" math="0" shadow="0">
      <root>
        <mxCell id="0" />
        <mxCell id="1" parent="0" />
        <mxCell id="ufnlYQHxm2TLW9yD92qH-64" style="edgeStyle=orthogonalEdgeStyle;rounded=0;orthogonalLoop=1;jettySize=auto;html=1;exitX=1;exitY=0.5;exitDx=0;exitDy=0;entryX=0;entryY=0.5;entryDx=0;entryDy=0;" edge="1" parent="1" source="ufnlYQHxm2TLW9yD92qH-1" target="ufnlYQHxm2TLW9yD92qH-2">
          <mxGeometry relative="1" as="geometry" />
        </mxCell>
        <mxCell id="ufnlYQHxm2TLW9yD92qH-65" style="edgeStyle=orthogonalEdgeStyle;rounded=0;orthogonalLoop=1;jettySize=auto;html=1;exitX=1;exitY=0.5;exitDx=0;exitDy=0;entryX=0;entryY=0.5;entryDx=0;entryDy=0;" edge="1" parent="1" source="ufnlYQHxm2TLW9yD92qH-1" target="ufnlYQHxm2TLW9yD92qH-22">
          <mxGeometry relative="1" as="geometry" />
        </mxCell>
        <mxCell id="ufnlYQHxm2TLW9yD92qH-66" style="edgeStyle=orthogonalEdgeStyle;rounded=0;orthogonalLoop=1;jettySize=auto;html=1;exitX=1;exitY=0.5;exitDx=0;exitDy=0;entryX=0;entryY=0.5;entryDx=0;entryDy=0;" edge="1" parent="1" source="ufnlYQHxm2TLW9yD92qH-1" target="ufnlYQHxm2TLW9yD92qH-43">
          <mxGeometry relative="1" as="geometry" />
        </mxCell>
        <mxCell id="ufnlYQHxm2TLW9yD92qH-67" style="edgeStyle=orthogonalEdgeStyle;rounded=0;orthogonalLoop=1;jettySize=auto;html=1;exitX=1;exitY=0.5;exitDx=0;exitDy=0;entryX=0;entryY=0.5;entryDx=0;entryDy=0;" edge="1" parent="1" source="ufnlYQHxm2TLW9yD92qH-1" target="ufnlYQHxm2TLW9yD92qH-55">
          <mxGeometry relative="1" as="geometry" />
        </mxCell>
        <mxCell id="ufnlYQHxm2TLW9yD92qH-1" value="the recent advances&lt;div&gt;in LLM serving systems&lt;/div&gt;" style="rounded=0;whiteSpace=wrap;html=1;" vertex="1" parent="1">
          <mxGeometry x="-330" y="1130" width="160" height="80" as="geometry" />
        </mxCell>
        <mxCell id="ufnlYQHxm2TLW9yD92qH-37" style="edgeStyle=orthogonalEdgeStyle;rounded=0;orthogonalLoop=1;jettySize=auto;html=1;exitX=1;exitY=0.5;exitDx=0;exitDy=0;entryX=0;entryY=0.5;entryDx=0;entryDy=0;" edge="1" parent="1" source="ufnlYQHxm2TLW9yD92qH-2" target="ufnlYQHxm2TLW9yD92qH-3">
          <mxGeometry relative="1" as="geometry" />
        </mxCell>
        <mxCell id="ufnlYQHxm2TLW9yD92qH-38" style="edgeStyle=orthogonalEdgeStyle;rounded=0;orthogonalLoop=1;jettySize=auto;html=1;exitX=1;exitY=0.5;exitDx=0;exitDy=0;" edge="1" parent="1" source="ufnlYQHxm2TLW9yD92qH-2" target="ufnlYQHxm2TLW9yD92qH-8">
          <mxGeometry relative="1" as="geometry" />
        </mxCell>
        <mxCell id="ufnlYQHxm2TLW9yD92qH-39" style="edgeStyle=orthogonalEdgeStyle;rounded=0;orthogonalLoop=1;jettySize=auto;html=1;exitX=1;exitY=0.5;exitDx=0;exitDy=0;entryX=0;entryY=0.5;entryDx=0;entryDy=0;" edge="1" parent="1" source="ufnlYQHxm2TLW9yD92qH-2" target="ufnlYQHxm2TLW9yD92qH-14">
          <mxGeometry relative="1" as="geometry" />
        </mxCell>
        <mxCell id="ufnlYQHxm2TLW9yD92qH-2" value="memory management&lt;div&gt;and&lt;/div&gt;&lt;div&gt;caching&lt;/div&gt;" style="rounded=0;whiteSpace=wrap;html=1;" vertex="1" parent="1">
          <mxGeometry x="80" y="580" width="160" height="80" as="geometry" />
        </mxCell>
        <mxCell id="ufnlYQHxm2TLW9yD92qH-77" style="edgeStyle=orthogonalEdgeStyle;rounded=0;orthogonalLoop=1;jettySize=auto;html=1;exitX=1;exitY=0.5;exitDx=0;exitDy=0;entryX=0;entryY=0.5;entryDx=0;entryDy=0;" edge="1" parent="1" source="ufnlYQHxm2TLW9yD92qH-3" target="ufnlYQHxm2TLW9yD92qH-4">
          <mxGeometry relative="1" as="geometry" />
        </mxCell>
        <mxCell id="ufnlYQHxm2TLW9yD92qH-3" value="Efficient Management of KV Cache" style="rounded=0;whiteSpace=wrap;html=1;" vertex="1" parent="1">
          <mxGeometry x="440" y="470" width="160" height="80" as="geometry" />
        </mxCell>
        <mxCell id="ufnlYQHxm2TLW9yD92qH-4" value="PagedAttention" style="rounded=0;whiteSpace=wrap;html=1;" vertex="1" parent="1">
          <mxGeometry x="747" y="480" width="140" height="60" as="geometry" />
        </mxCell>
        <mxCell id="ufnlYQHxm2TLW9yD92qH-5" value="vAttention" style="rounded=0;whiteSpace=wrap;html=1;" vertex="1" parent="1">
          <mxGeometry x="910" y="480" width="140" height="60" as="geometry" />
        </mxCell>
        <mxCell id="ufnlYQHxm2TLW9yD92qH-6" value="Prompt Cache" style="rounded=0;whiteSpace=wrap;html=1;" vertex="1" parent="1">
          <mxGeometry x="1080" y="480" width="140" height="60" as="geometry" />
        </mxCell>
        <mxCell id="ufnlYQHxm2TLW9yD92qH-7" value="AttentionStore" style="rounded=0;whiteSpace=wrap;html=1;" vertex="1" parent="1">
          <mxGeometry x="1250" y="480" width="140" height="60" as="geometry" />
        </mxCell>
        <mxCell id="ufnlYQHxm2TLW9yD92qH-78" style="edgeStyle=orthogonalEdgeStyle;rounded=0;orthogonalLoop=1;jettySize=auto;html=1;exitX=1;exitY=0.5;exitDx=0;exitDy=0;entryX=0;entryY=0.5;entryDx=0;entryDy=0;" edge="1" parent="1" source="ufnlYQHxm2TLW9yD92qH-8" target="ufnlYQHxm2TLW9yD92qH-9">
          <mxGeometry relative="1" as="geometry" />
        </mxCell>
        <mxCell id="ufnlYQHxm2TLW9yD92qH-8" value="Support for Long-Context Applications" style="rounded=0;whiteSpace=wrap;html=1;" vertex="1" parent="1">
          <mxGeometry x="440" y="580" width="160" height="80" as="geometry" />
        </mxCell>
        <mxCell id="ufnlYQHxm2TLW9yD92qH-9" value="Ring attention" style="rounded=0;whiteSpace=wrap;html=1;" vertex="1" parent="1">
          <mxGeometry x="747" y="590" width="140" height="60" as="geometry" />
        </mxCell>
        <mxCell id="ufnlYQHxm2TLW9yD92qH-10" value="Infinite-LLM" style="rounded=0;whiteSpace=wrap;html=1;" vertex="1" parent="1">
          <mxGeometry x="910" y="590" width="140" height="60" as="geometry" />
        </mxCell>
        <mxCell id="ufnlYQHxm2TLW9yD92qH-11" value="MemServe" style="rounded=0;whiteSpace=wrap;html=1;" vertex="1" parent="1">
          <mxGeometry x="1080" y="590" width="140" height="60" as="geometry" />
        </mxCell>
        <mxCell id="ufnlYQHxm2TLW9yD92qH-12" value="InfiniGen" style="rounded=0;whiteSpace=wrap;html=1;" vertex="1" parent="1">
          <mxGeometry x="1250" y="590" width="140" height="60" as="geometry" />
        </mxCell>
        <mxCell id="ufnlYQHxm2TLW9yD92qH-13" value="LoongServe" style="rounded=0;whiteSpace=wrap;html=1;" vertex="1" parent="1">
          <mxGeometry x="1420" y="590" width="140" height="60" as="geometry" />
        </mxCell>
        <mxCell id="ufnlYQHxm2TLW9yD92qH-79" style="edgeStyle=orthogonalEdgeStyle;rounded=0;orthogonalLoop=1;jettySize=auto;html=1;exitX=1;exitY=0.5;exitDx=0;exitDy=0;entryX=0;entryY=0.5;entryDx=0;entryDy=0;" edge="1" parent="1" source="ufnlYQHxm2TLW9yD92qH-14" target="ufnlYQHxm2TLW9yD92qH-18">
          <mxGeometry relative="1" as="geometry" />
        </mxCell>
        <mxCell id="ufnlYQHxm2TLW9yD92qH-14" value="Compression of KV Cache" style="rounded=0;whiteSpace=wrap;html=1;" vertex="1" parent="1">
          <mxGeometry x="440" y="700" width="160" height="80" as="geometry" />
        </mxCell>
        <mxCell id="ufnlYQHxm2TLW9yD92qH-18" value="FlexGen" style="rounded=0;whiteSpace=wrap;html=1;" vertex="1" parent="1">
          <mxGeometry x="747" y="710" width="140" height="60" as="geometry" />
        </mxCell>
        <mxCell id="ufnlYQHxm2TLW9yD92qH-19" value="KIVI" style="rounded=0;whiteSpace=wrap;html=1;" vertex="1" parent="1">
          <mxGeometry x="910" y="710" width="140" height="60" as="geometry" />
        </mxCell>
        <mxCell id="ufnlYQHxm2TLW9yD92qH-20" value="Gear" style="rounded=0;whiteSpace=wrap;html=1;" vertex="1" parent="1">
          <mxGeometry x="1080" y="710" width="140" height="60" as="geometry" />
        </mxCell>
        <mxCell id="ufnlYQHxm2TLW9yD92qH-21" value="MiniCache" style="rounded=0;whiteSpace=wrap;html=1;" vertex="1" parent="1">
          <mxGeometry x="1250" y="710" width="140" height="60" as="geometry" />
        </mxCell>
        <mxCell id="ufnlYQHxm2TLW9yD92qH-40" style="edgeStyle=orthogonalEdgeStyle;rounded=0;orthogonalLoop=1;jettySize=auto;html=1;exitX=1;exitY=0.5;exitDx=0;exitDy=0;entryX=0;entryY=0.5;entryDx=0;entryDy=0;" edge="1" parent="1" source="ufnlYQHxm2TLW9yD92qH-22" target="ufnlYQHxm2TLW9yD92qH-23">
          <mxGeometry relative="1" as="geometry" />
        </mxCell>
        <mxCell id="ufnlYQHxm2TLW9yD92qH-41" style="edgeStyle=orthogonalEdgeStyle;rounded=0;orthogonalLoop=1;jettySize=auto;html=1;exitX=1;exitY=0.5;exitDx=0;exitDy=0;" edge="1" parent="1" source="ufnlYQHxm2TLW9yD92qH-22" target="ufnlYQHxm2TLW9yD92qH-27">
          <mxGeometry relative="1" as="geometry" />
        </mxCell>
        <mxCell id="ufnlYQHxm2TLW9yD92qH-42" style="edgeStyle=orthogonalEdgeStyle;rounded=0;orthogonalLoop=1;jettySize=auto;html=1;exitX=1;exitY=0.5;exitDx=0;exitDy=0;entryX=0;entryY=0.5;entryDx=0;entryDy=0;" edge="1" parent="1" source="ufnlYQHxm2TLW9yD92qH-22" target="ufnlYQHxm2TLW9yD92qH-31">
          <mxGeometry relative="1" as="geometry" />
        </mxCell>
        <mxCell id="ufnlYQHxm2TLW9yD92qH-22" value="Computation Task Scheduling" style="rounded=0;whiteSpace=wrap;html=1;" vertex="1" parent="1">
          <mxGeometry x="80" y="960" width="160" height="80" as="geometry" />
        </mxCell>
        <mxCell id="ufnlYQHxm2TLW9yD92qH-80" style="edgeStyle=orthogonalEdgeStyle;rounded=0;orthogonalLoop=1;jettySize=auto;html=1;exitX=1;exitY=0.5;exitDx=0;exitDy=0;entryX=0;entryY=0.5;entryDx=0;entryDy=0;" edge="1" parent="1" source="ufnlYQHxm2TLW9yD92qH-23" target="ufnlYQHxm2TLW9yD92qH-24">
          <mxGeometry relative="1" as="geometry" />
        </mxCell>
        <mxCell id="ufnlYQHxm2TLW9yD92qH-23" value="Request Batching" style="rounded=0;whiteSpace=wrap;html=1;" vertex="1" parent="1">
          <mxGeometry x="440" y="850" width="160" height="80" as="geometry" />
        </mxCell>
        <mxCell id="ufnlYQHxm2TLW9yD92qH-24" value="Orca" style="rounded=0;whiteSpace=wrap;html=1;" vertex="1" parent="1">
          <mxGeometry x="747" y="860" width="140" height="60" as="geometry" />
        </mxCell>
        <mxCell id="ufnlYQHxm2TLW9yD92qH-25" value="vllm" style="rounded=0;whiteSpace=wrap;html=1;" vertex="1" parent="1">
          <mxGeometry x="910" y="860" width="140" height="60" as="geometry" />
        </mxCell>
        <mxCell id="ufnlYQHxm2TLW9yD92qH-26" value="Sarathi-Serve" style="rounded=0;whiteSpace=wrap;html=1;" vertex="1" parent="1">
          <mxGeometry x="1080" y="860" width="140" height="60" as="geometry" />
        </mxCell>
        <mxCell id="ufnlYQHxm2TLW9yD92qH-81" style="edgeStyle=orthogonalEdgeStyle;rounded=0;orthogonalLoop=1;jettySize=auto;html=1;exitX=1;exitY=0.5;exitDx=0;exitDy=0;" edge="1" parent="1" source="ufnlYQHxm2TLW9yD92qH-27" target="ufnlYQHxm2TLW9yD92qH-28">
          <mxGeometry relative="1" as="geometry" />
        </mxCell>
        <mxCell id="ufnlYQHxm2TLW9yD92qH-27" value="Disaggregated Inference" style="rounded=0;whiteSpace=wrap;html=1;" vertex="1" parent="1">
          <mxGeometry x="440" y="960" width="160" height="80" as="geometry" />
        </mxCell>
        <mxCell id="ufnlYQHxm2TLW9yD92qH-28" value="Tetriinfer" style="rounded=0;whiteSpace=wrap;html=1;" vertex="1" parent="1">
          <mxGeometry x="747" y="970" width="140" height="60" as="geometry" />
        </mxCell>
        <mxCell id="ufnlYQHxm2TLW9yD92qH-29" value="Splitwise" style="rounded=0;whiteSpace=wrap;html=1;" vertex="1" parent="1">
          <mxGeometry x="910" y="970" width="140" height="60" as="geometry" />
        </mxCell>
        <mxCell id="ufnlYQHxm2TLW9yD92qH-30" value="DistServe" style="rounded=0;whiteSpace=wrap;html=1;" vertex="1" parent="1">
          <mxGeometry x="1080" y="970" width="140" height="60" as="geometry" />
        </mxCell>
        <mxCell id="ufnlYQHxm2TLW9yD92qH-35" style="edgeStyle=orthogonalEdgeStyle;rounded=0;orthogonalLoop=1;jettySize=auto;html=1;entryX=0;entryY=0.5;entryDx=0;entryDy=0;" edge="1" parent="1" source="ufnlYQHxm2TLW9yD92qH-31" target="ufnlYQHxm2TLW9yD92qH-32">
          <mxGeometry relative="1" as="geometry" />
        </mxCell>
        <mxCell id="ufnlYQHxm2TLW9yD92qH-36" value="TP or PP" style="edgeLabel;html=1;align=center;verticalAlign=middle;resizable=0;points=[];" vertex="1" connectable="0" parent="ufnlYQHxm2TLW9yD92qH-35">
          <mxGeometry x="-0.0646" y="2" relative="1" as="geometry">
            <mxPoint as="offset" />
          </mxGeometry>
        </mxCell>
        <mxCell id="ufnlYQHxm2TLW9yD92qH-31" value="Model Parallelism" style="rounded=0;whiteSpace=wrap;html=1;" vertex="1" parent="1">
          <mxGeometry x="440" y="1070" width="160" height="80" as="geometry" />
        </mxCell>
        <mxCell id="ufnlYQHxm2TLW9yD92qH-32" value="HeteGen" style="rounded=0;whiteSpace=wrap;html=1;" vertex="1" parent="1">
          <mxGeometry x="747" y="1080" width="140" height="60" as="geometry" />
        </mxCell>
        <mxCell id="ufnlYQHxm2TLW9yD92qH-33" value="ExeGPT" style="rounded=0;whiteSpace=wrap;html=1;" vertex="1" parent="1">
          <mxGeometry x="910" y="1080" width="140" height="60" as="geometry" />
        </mxCell>
        <mxCell id="ufnlYQHxm2TLW9yD92qH-34" value="Helix" style="rounded=0;whiteSpace=wrap;html=1;" vertex="1" parent="1">
          <mxGeometry x="1080" y="1080" width="140" height="60" as="geometry" />
        </mxCell>
        <mxCell id="ufnlYQHxm2TLW9yD92qH-59" style="edgeStyle=orthogonalEdgeStyle;rounded=0;orthogonalLoop=1;jettySize=auto;html=1;exitX=1;exitY=0.5;exitDx=0;exitDy=0;" edge="1" parent="1" source="ufnlYQHxm2TLW9yD92qH-43" target="ufnlYQHxm2TLW9yD92qH-44">
          <mxGeometry relative="1" as="geometry" />
        </mxCell>
        <mxCell id="ufnlYQHxm2TLW9yD92qH-60" style="edgeStyle=orthogonalEdgeStyle;rounded=0;orthogonalLoop=1;jettySize=auto;html=1;exitX=1;exitY=0.5;exitDx=0;exitDy=0;entryX=0;entryY=0.5;entryDx=0;entryDy=0;" edge="1" parent="1" source="ufnlYQHxm2TLW9yD92qH-43" target="ufnlYQHxm2TLW9yD92qH-48">
          <mxGeometry relative="1" as="geometry" />
        </mxCell>
        <mxCell id="ufnlYQHxm2TLW9yD92qH-43" value="LLMs In Cloud" style="rounded=0;whiteSpace=wrap;html=1;" vertex="1" parent="1">
          <mxGeometry x="80" y="1275" width="160" height="80" as="geometry" />
        </mxCell>
        <mxCell id="ufnlYQHxm2TLW9yD92qH-82" style="edgeStyle=orthogonalEdgeStyle;rounded=0;orthogonalLoop=1;jettySize=auto;html=1;exitX=1;exitY=0.5;exitDx=0;exitDy=0;" edge="1" parent="1" source="ufnlYQHxm2TLW9yD92qH-44" target="ufnlYQHxm2TLW9yD92qH-45">
          <mxGeometry relative="1" as="geometry" />
        </mxCell>
        <mxCell id="ufnlYQHxm2TLW9yD92qH-44" value="Cloud Deployment Cost" style="rounded=0;whiteSpace=wrap;html=1;" vertex="1" parent="1">
          <mxGeometry x="440" y="1220" width="160" height="80" as="geometry" />
        </mxCell>
        <mxCell id="ufnlYQHxm2TLW9yD92qH-45" value="ServerlessLLM" style="rounded=0;whiteSpace=wrap;html=1;" vertex="1" parent="1">
          <mxGeometry x="747" y="1230" width="140" height="60" as="geometry" />
        </mxCell>
        <mxCell id="ufnlYQHxm2TLW9yD92qH-46" value="Melange" style="rounded=0;whiteSpace=wrap;html=1;" vertex="1" parent="1">
          <mxGeometry x="910" y="1230" width="140" height="60" as="geometry" />
        </mxCell>
        <mxCell id="ufnlYQHxm2TLW9yD92qH-47" value="Llumnix" style="rounded=0;whiteSpace=wrap;html=1;" vertex="1" parent="1">
          <mxGeometry x="1080" y="1230" width="140" height="60" as="geometry" />
        </mxCell>
        <mxCell id="ufnlYQHxm2TLW9yD92qH-52" style="edgeStyle=orthogonalEdgeStyle;rounded=0;orthogonalLoop=1;jettySize=auto;html=1;exitX=1;exitY=0.5;exitDx=0;exitDy=0;entryX=0;entryY=0.5;entryDx=0;entryDy=0;" edge="1" parent="1" source="ufnlYQHxm2TLW9yD92qH-48" target="ufnlYQHxm2TLW9yD92qH-49">
          <mxGeometry relative="1" as="geometry" />
        </mxCell>
        <mxCell id="ufnlYQHxm2TLW9yD92qH-53" value="Power Resource" style="edgeLabel;html=1;align=center;verticalAlign=middle;resizable=0;points=[];" vertex="1" connectable="0" parent="ufnlYQHxm2TLW9yD92qH-52">
          <mxGeometry x="-0.0459" y="-1" relative="1" as="geometry">
            <mxPoint as="offset" />
          </mxGeometry>
        </mxCell>
        <mxCell id="ufnlYQHxm2TLW9yD92qH-48" value="Cloud Efficiency" style="rounded=0;whiteSpace=wrap;html=1;" vertex="1" parent="1">
          <mxGeometry x="440" y="1330" width="160" height="80" as="geometry" />
        </mxCell>
        <mxCell id="ufnlYQHxm2TLW9yD92qH-49" value="POLCA" style="rounded=0;whiteSpace=wrap;html=1;" vertex="1" parent="1">
          <mxGeometry x="747" y="1340" width="140" height="60" as="geometry" />
        </mxCell>
        <mxCell id="ufnlYQHxm2TLW9yD92qH-50" value="PerLLM" style="rounded=0;whiteSpace=wrap;html=1;" vertex="1" parent="1">
          <mxGeometry x="910" y="1340" width="140" height="60" as="geometry" />
        </mxCell>
        <mxCell id="ufnlYQHxm2TLW9yD92qH-54" value="Andes" style="rounded=0;whiteSpace=wrap;html=1;" vertex="1" parent="1">
          <mxGeometry x="1080" y="1340" width="140" height="60" as="geometry" />
        </mxCell>
        <mxCell id="ufnlYQHxm2TLW9yD92qH-61" style="edgeStyle=orthogonalEdgeStyle;rounded=0;orthogonalLoop=1;jettySize=auto;html=1;exitX=1;exitY=0.5;exitDx=0;exitDy=0;entryX=0;entryY=0.5;entryDx=0;entryDy=0;" edge="1" parent="1" source="ufnlYQHxm2TLW9yD92qH-55" target="ufnlYQHxm2TLW9yD92qH-56">
          <mxGeometry relative="1" as="geometry" />
        </mxCell>
        <mxCell id="ufnlYQHxm2TLW9yD92qH-62" style="edgeStyle=orthogonalEdgeStyle;rounded=0;orthogonalLoop=1;jettySize=auto;html=1;exitX=1;exitY=0.5;exitDx=0;exitDy=0;entryX=0;entryY=0.5;entryDx=0;entryDy=0;" edge="1" parent="1" source="ufnlYQHxm2TLW9yD92qH-55" target="ufnlYQHxm2TLW9yD92qH-57">
          <mxGeometry relative="1" as="geometry" />
        </mxCell>
        <mxCell id="ufnlYQHxm2TLW9yD92qH-63" style="edgeStyle=orthogonalEdgeStyle;rounded=0;orthogonalLoop=1;jettySize=auto;html=1;exitX=1;exitY=0.5;exitDx=0;exitDy=0;entryX=0;entryY=0.5;entryDx=0;entryDy=0;" edge="1" parent="1" source="ufnlYQHxm2TLW9yD92qH-55" target="ufnlYQHxm2TLW9yD92qH-58">
          <mxGeometry relative="1" as="geometry" />
        </mxCell>
        <mxCell id="ufnlYQHxm2TLW9yD92qH-55" value="Emerging Research Fields" style="rounded=0;whiteSpace=wrap;html=1;" vertex="1" parent="1">
          <mxGeometry x="80" y="1590" width="160" height="80" as="geometry" />
        </mxCell>
        <mxCell id="ufnlYQHxm2TLW9yD92qH-56" value="RAG" style="rounded=0;whiteSpace=wrap;html=1;" vertex="1" parent="1">
          <mxGeometry x="440" y="1480" width="160" height="80" as="geometry" />
        </mxCell>
        <mxCell id="ufnlYQHxm2TLW9yD92qH-57" value="MoE" style="rounded=0;whiteSpace=wrap;html=1;" vertex="1" parent="1">
          <mxGeometry x="440" y="1590" width="160" height="80" as="geometry" />
        </mxCell>
        <mxCell id="ufnlYQHxm2TLW9yD92qH-58" value="Miscellaneous Fields" style="rounded=0;whiteSpace=wrap;html=1;" vertex="1" parent="1">
          <mxGeometry x="440" y="1700" width="160" height="80" as="geometry" />
        </mxCell>
        <mxCell id="ufnlYQHxm2TLW9yD92qH-68" value="The following is the corresponding papers" style="text;whiteSpace=wrap;" vertex="1" parent="1">
          <mxGeometry x="950" y="380" width="250" height="40" as="geometry" />
        </mxCell>
        <mxCell id="ufnlYQHxm2TLW9yD92qH-69" value="the first category" style="text;html=1;align=center;verticalAlign=middle;resizable=0;points=[];autosize=1;strokeColor=none;fillColor=none;" vertex="1" parent="1">
          <mxGeometry x="105" y="490" width="110" height="30" as="geometry" />
        </mxCell>
        <mxCell id="ufnlYQHxm2TLW9yD92qH-70" value="three aspects" style="text;html=1;align=center;verticalAlign=middle;resizable=0;points=[];autosize=1;strokeColor=none;fillColor=none;" vertex="1" parent="1">
          <mxGeometry x="460" y="388" width="100" height="30" as="geometry" />
        </mxCell>
        <mxCell id="ufnlYQHxm2TLW9yD92qH-72" value="non-contiguous memory blocks" style="whiteSpace=wrap;html=1;" vertex="1" parent="1">
          <mxGeometry x="762" y="440" width="110" height="30" as="geometry" />
        </mxCell>
        <mxCell id="ufnlYQHxm2TLW9yD92qH-73" value="contiguous virtual memory" style="whiteSpace=wrap;html=1;" vertex="1" parent="1">
          <mxGeometry x="925" y="440" width="110" height="30" as="geometry" />
        </mxCell>
        <mxCell id="ufnlYQHxm2TLW9yD92qH-74" value="specific prompt schema" style="whiteSpace=wrap;html=1;" vertex="1" parent="1">
          <mxGeometry x="1095" y="440" width="110" height="30" as="geometry" />
        </mxCell>
        <mxCell id="ufnlYQHxm2TLW9yD92qH-75" value="multi-turn conversations" style="whiteSpace=wrap;html=1;" vertex="1" parent="1">
          <mxGeometry x="1265" y="440" width="110" height="30" as="geometry" />
        </mxCell>
        <mxCell id="ufnlYQHxm2TLW9yD92qH-76" value="&lt;div&gt;&lt;span style=&quot;background-color: initial;&quot;&gt;This paper summarizes some existing research on the LLM inference systems,&lt;/span&gt;&lt;/div&gt;&lt;div&gt;&lt;span style=&quot;background-color: initial;&quot;&gt;Through this paper, I learned more about the current development direction of LLM inference.&lt;/span&gt;&lt;br&gt;&lt;/div&gt;" style="text;html=1;align=center;verticalAlign=middle;resizable=0;points=[];autosize=1;strokeColor=none;fillColor=none;" vertex="1" parent="1">
          <mxGeometry x="320" y="1890" width="520" height="40" as="geometry" />
        </mxCell>
      </root>
    </mxGraphModel>
  </diagram>
</mxfile>
